<svg xmlns="http://www.w3.org/2000/svg" width="32.001" height="32.028" viewBox="0 0 32.001 32.028">
  <g id="phone" transform="translate(0)">
    <path id="Path_10069" data-name="Path 10069" d="M54.862,30.052l-3.976-3.976a2.888,2.888,0,0,0-3.994,0l-.638.656c-.023.023-.694.683-.694.713A.911.911,0,0,0,45.6,28.72l6.62,6.62a.906.906,0,0,0,1.313,0l1.331-1.331A2.78,2.78,0,0,0,54.862,30.052Z" transform="translate(-42.499 -23.695)" fill="#1689fc"/>
    <path id="Path_10070" data-name="Path 10070" d="M330.535,306.332l-3.976-3.976a2.842,2.842,0,0,0-3.957,0l-.656.675-.675.656a.906.906,0,0,0,0,1.313l6.639,6.638a.927.927,0,0,0,1.331,0l.637-.656.656-.675A2.8,2.8,0,0,0,330.535,306.332Z" transform="translate(-300.915 -282.682)" fill="#136ef1"/>
    <path id="Path_10071" data-name="Path 10071" d="M29.175,73.86l-.638.657c-5.124,4.617-11.111,3.51-14.489.113L3.182,63.727a10.138,10.138,0,0,1,0-14.338.723.723,0,0,0,.169-.169L3.97,48.6l7.939,7.939-.375.394-.281.281c-.6.657-1.089,1.07-1.089,1.989a2.175,2.175,0,0,0,.619,1.52l3.134,3.134,3.134,3.17a2.188,2.188,0,0,0,3.022,0l.488-.469.676-.657Z" transform="translate(-0.212 -45.562)" fill="#17ace8"/>
    <g id="Group_5097" data-name="Group 5097" transform="translate(15.133)">
      <path id="Path_10072" data-name="Path 10072" d="M258.808,15.94a.938.938,0,0,1-1.875,0A14.086,14.086,0,0,0,242.868,1.875a.938.938,0,0,1,0-1.875,15.942,15.942,0,0,1,15.94,15.94Z" transform="translate(-241.94)" fill="#1de8f1"/>
      <path id="Path_10073" data-name="Path 10073" d="M255.058,72.189a.938.938,0,0,1-1.875,0,10.308,10.308,0,0,0-10.314-10.314.938.938,0,0,1,0-1.875,12.228,12.228,0,0,1,12.189,12.189Z" transform="translate(-241.94 -56.249)" fill="#1de8f1"/>
      <path id="Path_10074" data-name="Path 10074" d="M251.307,128.439a.938.938,0,0,1-1.875,0,6.595,6.595,0,0,0-6.563-6.563.938.938,0,0,1,0-1.875,8.452,8.452,0,0,1,8.439,8.439Z" transform="translate(-241.94 -112.499)" fill="#1de8f1"/>
      <path id="Path_10075" data-name="Path 10075" d="M247.557,184.688a.938.938,0,0,1-1.875,0,2.817,2.817,0,0,0-2.813-2.813.938.938,0,0,1,0-1.875,4.674,4.674,0,0,1,4.688,4.688Z" transform="translate(-241.94 -168.748)" fill="#1de8f1"/>
    </g>
    <g id="Group_5098" data-name="Group 5098" transform="translate(18.049 7.34)">
      <path id="Path_10076" data-name="Path 10076" d="M289.415,205.218a2.789,2.789,0,0,0-.825-1.988l1.331-1.331a4.692,4.692,0,0,1,1.369,3.319A.938.938,0,0,1,289.415,205.218Z" transform="translate(-288.59 -196.611)" fill="#1bd9de"/>
      <path id="Path_10077" data-name="Path 10077" d="M332.819,165.563a6.488,6.488,0,0,0-1.932-4.632l1.331-1.331a8.39,8.39,0,0,1,2.475,5.963A.938.938,0,0,1,332.819,165.563Z" transform="translate(-328.243 -156.956)" fill="#1bd9de"/>
      <path id="Path_10078" data-name="Path 10078" d="M376.507,125.907a10.338,10.338,0,0,0-3.019-7.295L374.8,117.3a12.1,12.1,0,0,1,3.581,8.608A.938.938,0,0,1,376.507,125.907Z" transform="translate(-368.181 -117.3)" fill="#1bd9de"/>
    </g>
    <path id="Path_10079" data-name="Path 10079" d="M147.288,294.544l7.932,7.951-.638.656c-5.119,4.613-11.1,3.507-14.477.112l-5.42-5.456v-.019l5.288-5.288,3.132,3.168a2.187,2.187,0,0,0,3.019,0l.488-.469Z" transform="translate(-126.257 -274.194)" fill="#1689fc"/>
    <path id="Path_10080" data-name="Path 10080" d="M421.79,85.97a.938.938,0,0,1-1.875,0,14,14,0,0,0-4.126-9.939l1.331-1.331A15.9,15.9,0,0,1,421.79,85.97Z" transform="translate(-389.789 -70.031)" fill="#1bd9de"/>
  </g>
</svg>
