<svg id="pin" xmlns="http://www.w3.org/2000/svg" width="22.52" height="32.028" viewBox="0 0 22.52 32.028">
  <path id="Path_10067" data-name="Path 10067" d="M325.182,0a11.269,11.269,0,0,0-11.26,11.26,11.1,11.1,0,0,0,1.689,5.911l8.807,14.413a.889.889,0,0,0,.638.432.934.934,0,0,0,.957-.45l8.833-14.545a11.105,11.105,0,0,0,1.6-5.761A11.269,11.269,0,0,0,325.182,0Zm0,16.89a5.63,5.63,0,1,1,5.63-5.63A5.622,5.622,0,0,1,325.182,16.89Z" transform="translate(-313.922)" fill="#fd003a"/>
  <path id="Path_10068" data-name="Path 10068" d="M1057.422,0V5.63a5.63,5.63,0,1,1,0,11.26V32.027a.931.931,0,0,0,.833-.461l8.843-14.545a11.094,11.094,0,0,0,1.6-5.761A11.275,11.275,0,0,0,1057.422,0Z" transform="translate(-1046.176)" fill="#e50027"/>
</svg>
