<svg xmlns="http://www.w3.org/2000/svg" width="32.028" height="28.932" viewBox="0 0 32.028 28.932">
  <g id="domain" transform="translate(0)">
    <path id="Path_10081" data-name="Path 10081" d="M53.669,14.466A14.459,14.459,0,1,1,39.209,0,14.463,14.463,0,0,1,53.669,14.466Zm0,0" transform="translate(-23.195 0)" fill="#80e0dc"/>
    <path id="Path_10082" data-name="Path 10082" d="M206.837,16.312a14.544,14.544,0,0,1-18.794,13.831,14.743,14.743,0,0,0,1.9.123,14.46,14.46,0,0,0,4.269-28.3,14.489,14.489,0,0,1,12.621,14.342Zm0,0" transform="translate(-176.364 -1.846)" fill="#00a8b0"/>
    <path id="Path_10083" data-name="Path 10083" d="M85.86,21.474a18.5,18.5,0,0,0-.007-14.016q.963-.2,1.889-.459a18.391,18.391,0,0,0,2.425-.828q-.286-.408-.6-.8a18.622,18.622,0,0,1-2.084.692q-.993.276-2.032.485A17.672,17.672,0,0,0,84.037,4.11,16.965,16.965,0,0,0,80.2.119h0q-.363-.047-.732-.076Q78.927,0,78.378,0h-.1Q77.734,0,77.2.043q-.369.029-.732.076h0A16.975,16.975,0,0,0,72.622,4.11a17.63,17.63,0,0,0-1.439,2.5,20.693,20.693,0,0,1-4.092-1.228q-.313.387-.6.8a21.218,21.218,0,0,0,4.292,1.34,18.5,18.5,0,0,0-.007,13.907,21.175,21.175,0,0,0-4.285,1.338q.285.408.6.8a20.677,20.677,0,0,1,4.094-1.228,16.887,16.887,0,0,0,1.575,2.622A19,19,0,0,0,76.5,28.816q.349.044.7.072c.356.027.716.042,1.078.043h.1c.363,0,.723-.015,1.078-.043q.354-.028.7-.072A19.017,19.017,0,0,0,83.9,24.947a16.909,16.909,0,0,0,1.55-2.57q1.039.21,2.033.486a18.572,18.572,0,0,1,2.084.692q.314-.387.6-.8a18.461,18.461,0,0,0-2.425-.828q-.922-.257-1.882-.457ZM85.9,10.919A17.251,17.251,0,0,1,84.89,21.286q-1.354-.24-2.775-.374a40.657,40.657,0,0,0,.361-9.931c-.086-1.02-.209-2.011-.366-2.964q1.42-.133,2.776-.374a17.474,17.474,0,0,1,1.02,3.274ZM78.33,28.864a17.379,17.379,0,0,1-1.947-4.349,26.156,26.156,0,0,1-.695-2.726c.772-.042,1.513-.062,2.211-.072q1.568-.021,3.072.076a26.281,26.281,0,0,1-.694,2.721,17.38,17.38,0,0,1-1.947,4.349Zm-.444-8.114c-.747.011-1.544.032-2.375.08a39.628,39.628,0,0,1-.364-9.766c.087-1.022.211-2.013.369-2.963.829.048,1.625.07,2.37.08q.295,0,.587,0,1.36,0,2.671-.089c.159.951.283,1.944.37,2.968a39.619,39.619,0,0,1-.365,9.771q-1.6-.108-3.263-.085ZM78.33.064a19.576,19.576,0,0,1,2.639,7.073q-1.5.1-3.07.076c-.7-.01-1.438-.03-2.209-.072A19.57,19.57,0,0,1,78.33.064Zm4.913,4.6a16.733,16.733,0,0,1,1.222,2.075q-1.235.209-2.528.326a24.5,24.5,0,0,0-1.8-5.766,16.042,16.042,0,0,1,3.108,3.365Zm-9.826,0A16.043,16.043,0,0,1,76.525,1.3a24.521,24.521,0,0,0-1.806,5.781c-.828-.065-1.683-.159-2.548-.3a16.772,16.772,0,0,1,1.245-2.12Zm-2.662,6.258a17.446,17.446,0,0,1,1-3.225c.949.16,1.886.268,2.793.341-.156.948-.278,1.933-.364,2.947a40.664,40.664,0,0,0,.359,9.915c-.907.074-1.845.181-2.794.341a17.252,17.252,0,0,1-.995-10.319Zm2.784,13.456a16,16,0,0,1-1.363-2.226c.862-.137,1.715-.232,2.541-.3a27.255,27.255,0,0,0,.746,2.954,23.724,23.724,0,0,0,1.07,2.8A18.41,18.41,0,0,1,73.539,24.375Zm9.582,0A18.412,18.412,0,0,1,80.127,27.6a23.735,23.735,0,0,0,1.07-2.8,27.322,27.322,0,0,0,.743-2.938q1.289.118,2.521.326A15.956,15.956,0,0,1,83.121,24.375Zm0,0" transform="translate(-62.316 0.001)" fill="#00a8b0"/>
    <path id="Path_10084" data-name="Path 10084" d="M31.313,203.03H.715A.716.716,0,0,1,0,202.313V197.94a.716.716,0,0,1,.714-.717h30.6a.716.716,0,0,1,.714.717v4.372A.716.716,0,0,1,31.313,203.03Zm0,0" transform="translate(0 -184.898)" fill="#e7e7e7"/>
    <g id="Group_5099" data-name="Group 5099" transform="translate(3.132 13.575)">
      <path id="Path_10085" data-name="Path 10085" d="M50.308,220.655c0,.069-.1.143-.226.143s-.223-.073-.223-.143v-2.336c0-.084.091-.139.223-.139s.226.056.226.139v1.069a.478.478,0,0,1,.439-.265.669.669,0,0,1,.6.707v.825c0,.094-.115.143-.226.143s-.223-.049-.223-.143v-.825a.322.322,0,0,0-.3-.313.3.3,0,0,0-.285.313Zm0,0" transform="translate(-49.859 -218.114)" fill="#5a5a5a"/>
      <path id="Path_10086" data-name="Path 10086" d="M82.566,223.609c0,.136.049.184.2.184H82.9a.19.19,0,1,1,0,.379h-.136c-.418,0-.644-.171-.644-.564v-1.688c0-.083.118-.139.223-.139s.226.056.226.139v.6h.411c.073,0,.115.084.115.164s-.042.163-.115.163h-.411Zm0,0" transform="translate(-80.091 -221.489)" fill="#5a5a5a"/>
      <path id="Path_10087" data-name="Path 10087" d="M105.125,223.609c0,.136.049.184.2.184h.136a.19.19,0,1,1,0,.379h-.136c-.418,0-.644-.171-.644-.564v-1.688c0-.083.118-.139.223-.139s.226.056.226.139v.6h.411c.073,0,.115.084.115.164s-.042.163-.115.163h-.411Zm0,0" transform="translate(-101.232 -221.489)" fill="#5a5a5a"/>
      <path id="Path_10088" data-name="Path 10088" d="M127.765,233.359v.1a.547.547,0,0,1,.47-.265.669.669,0,0,1,.623.707v.285a.691.691,0,0,1-.609.714.518.518,0,0,1-.456-.275v.87c0,.073-.1.143-.23.143s-.219-.069-.219-.143v-2.141c0-.083.094-.139.212-.139S127.765,233.276,127.765,233.359Zm.644.546a.327.327,0,0,0-.317-.313.3.3,0,0,0-.3.313v.348a.339.339,0,0,0,.306.258.332.332,0,0,0,.31-.32Zm0,0" transform="translate(-122.477 -232.19)" fill="#5a5a5a"/>
      <path id="Path_10089" data-name="Path 10089" d="M158.757,234.414c0-.306-.825-.115-.825-.7,0-.247.157-.519.623-.519.282,0,.554.1.554.226,0,.063-.059.216-.164.216-.083,0-.191-.1-.383-.1-.174,0-.244.087-.244.157,0,.254.835.08.835.7,0,.31-.23.508-.641.508-.355,0-.63-.146-.63-.3,0-.073.063-.2.15-.2s.178.157.47.157C158.708,234.564,158.757,234.484,158.757,234.414Zm0,0" transform="translate(-151.098 -232.19)" fill="#5a5a5a"/>
      <path id="Path_10090" data-name="Path 10090" d="M185.787,236.705a.241.241,0,0,1-.233.237.237.237,0,1,1,.233-.237Zm0,1.017a.241.241,0,0,1-.233.237.237.237,0,1,1,.233-.237Zm0,0" transform="translate(-176.808 -235.254)" fill="#5a5a5a"/>
      <path id="Path_10091" data-name="Path 10091" d="M201.074,217.285a.135.135,0,0,1-.014.063l-1.25,2.527a.151.151,0,0,1-.136.077.162.162,0,0,1-.167-.153.119.119,0,0,1,.017-.059l1.25-2.537a.135.135,0,0,1,.125-.073A.169.169,0,0,1,201.074,217.285Zm0,0" transform="translate(-190.108 -217.129)" fill="#5a5a5a"/>
      <path id="Path_10092" data-name="Path 10092" d="M217.813,217.285a.137.137,0,0,1-.014.063l-1.25,2.527a.151.151,0,0,1-.136.077.163.163,0,0,1-.167-.153.116.116,0,0,1,.017-.059l1.25-2.537a.136.136,0,0,1,.125-.073A.169.169,0,0,1,217.813,217.285Zm0,0" transform="translate(-205.796 -217.129)" fill="#5a5a5a"/>
      <path id="Path_10093" data-name="Path 10093" d="M246.162,234.883c-.024.059-.1.08-.178.08s-.164-.028-.185-.08l-.268-.759-.265.755c-.021.056-.1.083-.191.083a.175.175,0,0,1-.174-.083l-.536-1.375a.142.142,0,0,1-.017-.066c0-.108.174-.184.292-.184a.128.128,0,0,1,.129.073l.348.989.261-.86c.025-.08.084-.091.153-.091s.129.01.153.091l.258.863.351-.992a.129.129,0,0,1,.129-.073c.111,0,.289.077.289.188a.129.129,0,0,1-.014.063Zm0,0" transform="translate(-232.132 -232.241)" fill="#5a5a5a"/>
      <path id="Path_10094" data-name="Path 10094" d="M287.9,234.883c-.025.059-.1.08-.178.08s-.163-.028-.184-.08l-.268-.759-.265.755c-.021.056-.1.083-.191.083a.174.174,0,0,1-.174-.083L286.1,233.5a.142.142,0,0,1-.017-.066c0-.108.174-.184.292-.184a.127.127,0,0,1,.129.073l.348.989.261-.86c.025-.08.084-.091.153-.091s.129.01.153.091l.258.863.352-.992a.129.129,0,0,1,.129-.073c.111,0,.289.077.289.188a.126.126,0,0,1-.014.063Zm0,0" transform="translate(-271.245 -232.241)" fill="#5a5a5a"/>
      <path id="Path_10095" data-name="Path 10095" d="M329.63,234.883c-.024.059-.1.08-.177.08s-.164-.028-.185-.08l-.268-.759-.264.755c-.021.056-.1.083-.192.083a.174.174,0,0,1-.174-.083l-.536-1.375a.141.141,0,0,1-.017-.066c0-.108.174-.184.292-.184a.128.128,0,0,1,.129.073l.348.989.261-.86c.024-.08.083-.091.153-.091s.129.01.153.091l.258.863.352-.992a.129.129,0,0,1,.129-.073c.111,0,.289.077.289.188a.129.129,0,0,1-.014.063Zm0,0" transform="translate(-310.357 -232.241)" fill="#5a5a5a"/>
    </g>
    <path id="Path_10096" data-name="Path 10096" d="M416.33,202.082h-5.646v-5.895h5.646a.717.717,0,0,1,.717.717v4.46A.717.717,0,0,1,416.33,202.082Zm0,0" transform="translate(-385.02 -183.928)" fill="#c9f0ff"/>
    <path id="Path_10097" data-name="Path 10097" d="M438.424,219.578l.291.589a.244.244,0,0,0,.183.133l.65.094a.243.243,0,0,1,.135.415l-.471.459a.243.243,0,0,0-.07.215l.111.648a.243.243,0,0,1-.353.256l-.582-.306a.244.244,0,0,0-.226,0l-.582.306a.243.243,0,0,1-.353-.256l.111-.648a.243.243,0,0,0-.07-.215l-.471-.459a.243.243,0,0,1,.135-.415l.65-.094a.244.244,0,0,0,.183-.133l.291-.589A.243.243,0,0,1,438.424,219.578Zm0,0" transform="translate(-409.36 -205.722)" fill="#ffd86e"/>
    <path id="Path_10098" data-name="Path 10098" d="M487.52,203.03h-.875v-5.807h.875a.717.717,0,0,1,.717.717v4.373A.717.717,0,0,1,487.52,203.03Zm0,0" transform="translate(-456.209 -184.898)" fill="#9ae7fd"/>
  </g>
</svg>
