<svg xmlns="http://www.w3.org/2000/svg" width="26.824" height="26.822" viewBox="0 0 26.824 26.822">
  <g id="Group_1661" data-name="Group 1661" transform="translate(0 0)">
    <path id="Path_4073" data-name="Path 4073" d="M37.421,21.173c3.7,0,7.4.024,11.1-.014a2.337,2.337,0,0,1,2.306,2.307c-.03,5.9-.014,11.8-.014,17.7a2.193,2.193,0,0,1-2.275,2.284H41.544c-.408,0-.427.012-.4.412a5.036,5.036,0,0,0,.515,2.1,4.326,4.326,0,0,0,.7.913,1.228,1.228,0,0,0,.979.359c.424-.019.849-.008,1.274,0,.307,0,.461.138.458.38s-.161.37-.469.37q-7.263,0-14.527,0c-.294,0-.469-.145-.471-.374s.168-.373.466-.376c.415,0,.832-.019,1.246,0a1.457,1.457,0,0,0,1.141-.466,3.8,3.8,0,0,0,.991-2.175c.044-.251.068-.5.094-.758.035-.325-.017-.383-.348-.384q-2.237,0-4.474,0c-.85,0-1.7,0-2.549,0A2.2,2.2,0,0,1,24,41.28q0-8.962,0-17.925a2.185,2.185,0,0,1,2.2-2.182Q31.815,21.17,37.421,21.173ZM37.38,39.3H49.614c.438,0,.445-.007.445-.441,0-5.136-.014-10.271.014-15.406a1.623,1.623,0,0,0-1.535-1.54q-11.129.036-22.26,0a1.623,1.623,0,0,0-1.535,1.54c.028,5.135.014,10.271.014,15.406,0,.435.007.441.444.441Zm.029.753H25.287c-.085,0-.17,0-.255,0-.191-.01-.278.076-.275.268,0,.3,0,.6,0,.907a1.441,1.441,0,0,0,1.464,1.47q11.187,0,22.373,0a1.441,1.441,0,0,0,1.464-1.47c0-.245,0-.491,0-.736,0-.437,0-.438-.444-.438Zm-.076,7.177h.2c1.17,0,2.34,0,3.51,0,.111,0,.273-.032.317-.106s-.034-.218-.084-.319c-.109-.219-.25-.422-.352-.644a6.278,6.278,0,0,1-.515-2.218c-.033-.487-.032-.487-.5-.487H34.721c-.414,0-.407,0-.439.4a6.114,6.114,0,0,1-.846,2.9,1.884,1.884,0,0,0-.143.372,1.78,1.78,0,0,0,.415.1C34.916,47.231,36.125,47.228,37.332,47.228Z" transform="translate(-24.003 -21.159)" fill="#fff"/>
    <path id="Path_4074" data-name="Path 4074" d="M32.776,24.829h2.94c.483,0,.574.09.574.559q0,2.683,0,5.366c0,.435-.108.546-.531.546q-2.982,0-5.965,0c-.424,0-.531-.111-.531-.545q0-2.684,0-5.367c0-.469.091-.559.574-.559Q31.306,24.828,32.776,24.829Zm.028.76c-.818,0-1.636.007-2.454,0-.264,0-.349.1-.348.354q.011,2.126,0,4.251c0,.256.088.356.349.356q2.424-.01,4.85,0c.261,0,.349-.1.348-.356q-.011-2.125,0-4.251c0-.254-.085-.358-.348-.354C34.4,25.6,33.6,25.589,32.8,25.589Z" transform="translate(-25.968 -22.531)" fill="#fff"/>
    <path id="Path_4075" data-name="Path 4075" d="M32.771,44.072q-1.484,0-2.969,0c-.43,0-.539-.109-.539-.537q0-2.712,0-5.423c0-.4.108-.509.508-.51q3.012,0,6.023,0c.383,0,.5.115.5.492q0,2.74,0,5.481c0,.373-.121.5-.493.5Q34.284,44.074,32.771,44.072Zm.035-5.712c-.818,0-1.636.007-2.454,0-.264,0-.351.1-.349.353q.011,2.126,0,4.251c0,.256.086.358.348.357q2.425-.01,4.85,0c.26,0,.351-.1.349-.355q-.011-2.126,0-4.251c0-.254-.083-.359-.348-.355C34.4,38.367,33.6,38.36,32.806,38.36Z" transform="translate(-25.969 -27.419)" fill="#fff"/>
    <path id="Path_4076" data-name="Path 4076" d="M50.028,25.742h4.6a1.72,1.72,0,0,1,.284.011.346.346,0,0,1,.317.347.356.356,0,0,1-.3.388,1.084,1.084,0,0,1-.256.012H45.332a1.088,1.088,0,0,1-.282-.021.371.371,0,0,1,.043-.726,1.72,1.72,0,0,1,.284-.011Z" transform="translate(-31.995 -22.872)" fill="#fff"/>
    <path id="Path_4077" data-name="Path 4077" d="M50,38.513h4.623a1.717,1.717,0,0,1,.284.011.346.346,0,0,1,.318.346.356.356,0,0,1-.3.39,1.081,1.081,0,0,1-.255.012H45.333a1.086,1.086,0,0,1-.282-.021.371.371,0,0,1,.04-.726,1.654,1.654,0,0,1,.284-.011Z" transform="translate(-31.995 -27.74)" fill="#fff"/>
    <path id="Path_4078" data-name="Path 4078" d="M47.716,29.388q1.185,0,2.368,0c.095,0,.215-.024.278.023a.748.748,0,0,1,.282.338c.051.186-.081.325-.267.376a1.116,1.116,0,0,1-.282.02q-2.382,0-4.764,0a1.084,1.084,0,0,1-.256-.013.356.356,0,0,1-.3-.391.346.346,0,0,1,.319-.344,1.514,1.514,0,0,1,.256-.011Z" transform="translate(-31.907 -24.277)" fill="#fff"/>
    <path id="Path_4079" data-name="Path 4079" d="M47.713,42.16c.8,0,1.6,0,2.4,0,.095,0,.214-.019.277.03.108.084.245.21.252.326a.529.529,0,0,1-.212.354c-.073.06-.217.047-.329.047q-2.381,0-4.764,0a1.077,1.077,0,0,1-.255-.011.357.357,0,0,1-.3-.388.346.346,0,0,1,.315-.348,1.454,1.454,0,0,1,.256-.011Z" transform="translate(-31.907 -29.122)" fill="#fff"/>
    <path id="Path_4080" data-name="Path 4080" d="M47.729,46.568c-.8,0-1.6,0-2.4,0-.1,0-.24.018-.3-.039a.61.61,0,0,1-.228-.372c0-.109.148-.237.259-.318.064-.048.183-.028.277-.028q2.382,0,4.764,0a1.769,1.769,0,0,1,.2,0,.376.376,0,0,1-.008.751c-.151.014-.3,0-.456,0Z" transform="translate(-31.918 -30.505)" fill="#fff"/>
    <path id="Path_4081" data-name="Path 4081" d="M47.7,33.8c-.827,0-1.655,0-2.482,0-.323,0-.515-.22-.435-.483s.282-.276.5-.275q1.84,0,3.68,0c.409,0,.818,0,1.227,0,.307,0,.465.141.461.383s-.164.372-.473.373C49.351,33.8,48.524,33.8,47.7,33.8Z" transform="translate(-31.902 -25.663)" fill="#fff"/>
    <path id="Path_4082" data-name="Path 4082" d="M35.652,27.913a3.334,3.334,0,0,1-.189.345q-.782,1.051-1.572,2.1c-.243.322-.445.339-.726.063q-.5-.489-.988-.988c-.211-.214-.237-.433-.08-.6s.394-.152.621.07c.156.153.309.309.464.463.26.259.314.257.529-.029q.592-.785,1.179-1.573a.356.356,0,0,1,.468-.155C35.476,27.667,35.553,27.8,35.652,27.913Z" transform="translate(-27.04 -23.554)" fill="#fff"/>
    <path id="Path_4083" data-name="Path 4083" d="M35.624,40.722a1.975,1.975,0,0,1-.15.292q-.8,1.076-1.607,2.143c-.219.289-.427.3-.688.047q-.519-.508-1.028-1.028a.382.382,0,1,1,.533-.535c.185.177.369.356.544.545s.309.163.457-.038c.393-.536.793-1.067,1.2-1.6.195-.256.486-.278.644-.056A1.307,1.307,0,0,1,35.624,40.722Z" transform="translate(-27.039 -28.444)" fill="#fff"/>
  </g>
</svg>
